<svg data-v-fde0c5aa="" xmlns="http://www.w3.org/2000/svg" viewBox="0 0 300 300" class="font"><!----><defs data-v-fde0c5aa=""><!----></defs><rect data-v-fde0c5aa="" fill="#437085" x="0" y="0" width="300px" height="300px" class="logo-background-square"></rect><defs data-v-fde0c5aa=""><!----></defs><g data-v-fde0c5aa="" id="27ac2213-a043-4156-9add-d579fcd60ed3" fill="#ECEBE7" transform="matrix(2.3884485782456486,0,0,2.3884485782456486,37.99370311455057,116.75279560859641)"><path d="M9.10 17.22Q9.10 18.13 9.53 18.49L9.53 18.49Q8.74 19.18 7.87 19.18L7.87 19.18Q7.11 19.18 6.71 18.84Q6.31 18.51 6.23 17.81L6.23 17.81L6.09 17.74Q5.52 18.42 4.75 18.80Q3.98 19.18 3.05 19.18L3.05 19.18Q1.93 19.18 1.39 18.62Q0.84 18.06 0.84 16.91L0.84 16.91Q0.84 16.39 0.92 15.81Q1.01 15.23 1.18 14.42L1.18 14.42Q1.29 13.86 1.37 13.31Q1.46 12.75 1.46 12.39L1.46 12.39Q1.46 11.98 1.38 11.65Q1.30 11.31 1.16 11.12L1.16 11.12Q1.74 10.82 2.36 10.63Q2.98 10.43 3.36 10.43L3.36 10.43Q3.93 10.43 4.19 10.66Q4.45 10.89 4.45 11.42L4.45 11.42Q4.45 11.76 4.31 12.50Q4.17 13.24 4.02 14.00L4.02 14.00Q3.86 14.73 3.73 15.43Q3.60 16.13 3.60 16.42L3.60 16.42Q3.60 16.97 3.82 17.22Q4.05 17.47 4.54 17.47L4.54 17.47Q5.00 17.47 5.48 17.19Q5.96 16.90 6.33 16.41L6.33 16.41Q6.52 15.19 7.11 12.66L7.11 12.66L6.33 11.48Q7.29 10.91 7.92 10.67Q8.54 10.43 9.09 10.43L9.09 10.43Q9.65 10.43 9.89 10.67Q10.14 10.91 10.14 11.47L10.14 11.47Q10.14 11.65 10.03 12.13Q9.93 12.61 9.80 13.19L9.80 13.19Q9.48 14.52 9.29 15.51Q9.10 16.49 9.10 17.22L9.10 17.22ZM13.12 19.18Q12.26 19.18 11.87 18.75Q11.48 18.31 11.48 17.44L11.48 17.44Q11.48 16.94 11.75 15.37Q12.03 13.80 12.36 12.33L12.36 12.33L11.62 11.21Q12.15 10.85 12.65 10.64Q13.15 10.43 13.65 10.43L13.65 10.43Q14.22 10.43 14.51 10.71Q14.80 10.99 14.80 11.49L14.80 11.49Q14.80 11.93 14.69 12.35Q14.57 12.77 14.35 13.36L14.35 13.36L14.49 13.43Q14.85 12.40 15.19 11.78Q15.53 11.16 15.99 10.80Q16.45 10.44 17.12 10.44L17.12 10.44Q17.77 10.44 18.14 10.82Q18.52 11.19 18.52 11.82L18.52 11.82Q18.52 12.56 18.05 13.03Q17.58 13.51 16.73 13.51L16.73 13.51Q16.07 13.51 15.53 14.00Q14.98 14.49 14.67 15.34Q14.36 16.18 14.36 17.22L14.36 17.22Q14.36 18.09 14.66 18.49L14.66 18.49Q13.92 19.18 13.12 19.18L13.12 19.18ZM22.81 19.18Q20.76 19.18 19.78 18.66Q18.80 18.14 18.80 17.26L18.80 17.26Q18.80 16.88 18.98 16.49Q19.17 16.09 19.49 15.81L19.49 15.81Q20.08 16.63 20.84 17.09Q21.60 17.56 22.65 17.56L22.65 17.56Q23.49 17.56 24.02 17.29Q24.56 17.02 24.56 16.49L24.56 16.49Q24.56 16.10 24.13 15.86Q23.70 15.61 22.75 15.29L22.75 15.29Q21.71 14.92 21.04 14.59Q20.36 14.25 19.86 13.64Q19.36 13.02 19.36 12.08L19.36 12.08Q19.36 10.96 20.07 10.19Q20.78 9.42 21.97 9.04Q23.17 8.67 24.64 8.67L24.64 8.67Q25.73 8.67 26.55 8.90Q27.37 9.13 27.80 9.55Q28.24 9.97 28.24 10.50L28.24 10.50Q28.24 11.21 27.74 11.62Q27.24 12.03 26.52 12.03L26.52 12.03Q25.83 12.03 25.27 11.64Q24.71 11.26 24.39 10.51L24.39 10.51Q23.53 10.60 22.97 10.93Q22.41 11.26 22.41 11.73L22.41 11.73Q22.41 12.15 22.86 12.40Q23.31 12.64 24.28 12.95L24.28 12.95Q25.33 13.29 25.98 13.60Q26.64 13.92 27.13 14.50Q27.61 15.08 27.61 15.99L27.61 15.99Q27.61 17.02 26.90 17.75Q26.19 18.47 25.09 18.82Q23.98 19.18 22.81 19.18L22.81 19.18ZM35.43 8.69Q36.40 8.69 37.11 9.13Q37.81 9.56 38.19 10.28Q38.56 10.99 38.56 11.83L38.56 11.83Q38.56 12.87 38.04 13.81Q37.52 14.76 36.46 15.36Q35.41 15.96 33.88 15.96L33.88 15.96Q33.07 15.96 32.49 15.75L32.49 15.75Q32.38 16.51 32.38 16.81L32.38 16.81Q32.38 17.46 32.47 17.85Q32.56 18.24 32.80 18.56L32.80 18.56Q32.00 19.19 31.07 19.19L31.07 19.19Q30.17 19.19 29.76 18.75Q29.36 18.30 29.36 17.30L29.36 17.30Q29.36 16.69 29.53 15.46Q29.71 14.22 30.24 11.19L30.24 11.19L29.50 9.69Q31.08 8.67 32.38 8.67L32.38 8.67Q33.04 8.67 33.29 9.16L33.29 9.16Q34.22 8.69 35.43 8.69L35.43 8.69ZM33.14 14.21Q33.78 14.21 34.31 13.93Q34.83 13.65 35.13 13.15Q35.43 12.64 35.43 12.03L35.43 12.03Q35.43 11.38 35.06 10.93Q34.69 10.49 34.02 10.49L34.02 10.49Q33.74 10.49 33.40 10.60L33.40 10.60Q33.36 10.89 33.05 12.60L33.05 12.60Q32.89 13.47 32.77 14.18L32.77 14.18Q33.00 14.21 33.14 14.21L33.14 14.21ZM47.11 10.12Q48.05 10.12 48.57 10.86Q49.10 11.59 49.10 12.89L49.10 12.89Q49.10 14.67 48.36 16.11Q47.61 17.54 46.31 18.36Q45.01 19.18 43.40 19.18L43.40 19.18Q42.07 19.18 41.07 18.63Q40.07 18.09 39.52 17.11Q38.98 16.13 38.98 14.87L38.98 14.87Q38.98 13.06 39.72 11.65Q40.47 10.23 41.71 9.46Q42.95 8.68 44.38 8.68L44.38 8.68Q45.32 8.68 45.72 9.00Q46.13 9.32 46.13 10.02L46.13 10.02Q46.13 10.18 46.10 10.43L46.10 10.43Q46.54 10.12 47.11 10.12L47.11 10.12ZM44.07 17.70Q44.76 17.70 45.41 17.31Q46.06 16.93 46.52 16.24Q46.98 15.55 47.12 14.69L47.12 14.69Q45.30 13.85 45.30 12.01L45.30 12.01Q45.30 11.35 45.68 10.84L45.68 10.84Q45.29 10.78 45.12 10.78L45.12 10.78Q44.20 10.78 43.50 11.33Q42.80 11.89 42.41 12.82Q42.03 13.76 42.03 14.87L42.03 14.87Q42.03 16.24 42.57 16.97Q43.12 17.70 44.07 17.70L44.07 17.70ZM61.05 9.97Q61.05 10.28 60.89 11.22Q60.73 12.17 60.54 13.20L60.54 13.20Q59.98 16.20 59.98 16.80L59.98 16.80Q59.98 17.44 60.07 17.84Q60.16 18.23 60.40 18.55L60.40 18.55Q59.98 18.89 59.55 19.03Q59.12 19.18 58.62 19.18L58.62 19.18Q57.36 19.18 56.63 18.54Q55.90 17.89 55.39 16.23Q54.88 14.57 54.32 11.19L54.32 11.19L54.17 11.19Q53.98 12.32 53.80 13.23L53.80 13.23Q53.54 14.67 53.39 15.55Q53.24 16.44 53.24 16.81L53.24 16.81Q53.24 17.46 53.33 17.85Q53.42 18.24 53.66 18.56L53.66 18.56Q52.86 19.19 51.93 19.19L51.93 19.19Q51.03 19.19 50.62 18.75Q50.22 18.30 50.22 17.30L50.22 17.30Q50.22 16.69 50.39 15.46Q50.57 14.22 51.10 11.19L51.10 11.19L50.36 9.69Q51.94 8.67 53.24 8.67L53.24 8.67Q54.40 8.67 55.03 9.17Q55.66 9.67 56.08 11.06Q56.50 12.45 56.99 15.43L56.99 15.43L57.13 15.43Q57.27 14.43 57.83 11.17L57.83 11.17L57.23 9.67Q58.72 8.65 59.98 8.65L59.98 8.65Q61.05 8.65 61.05 9.97L61.05 9.97ZM65.95 19.18Q63.91 19.18 62.93 18.66Q61.95 18.14 61.95 17.26L61.95 17.26Q61.95 16.88 62.13 16.49Q62.31 16.09 62.64 15.81L62.64 15.81Q63.22 16.63 63.99 17.09Q64.75 17.56 65.80 17.56L65.80 17.56Q66.64 17.56 67.17 17.29Q67.70 17.02 67.70 16.49L67.70 16.49Q67.70 16.10 67.28 15.86Q66.85 15.61 65.90 15.29L65.90 15.29Q64.86 14.92 64.18 14.59Q63.50 14.25 63.01 13.64Q62.51 13.02 62.51 12.08L62.51 12.08Q62.51 10.96 63.22 10.19Q63.92 9.42 65.12 9.04Q66.32 8.67 67.79 8.67L67.79 8.67Q68.88 8.67 69.70 8.90Q70.52 9.13 70.95 9.55Q71.39 9.97 71.39 10.50L71.39 10.50Q71.39 11.21 70.89 11.62Q70.39 12.03 69.66 12.03L69.66 12.03Q68.98 12.03 68.42 11.64Q67.86 11.26 67.54 10.51L67.54 10.51Q66.68 10.60 66.12 10.93Q65.56 11.26 65.56 11.73L65.56 11.73Q65.56 12.15 66.01 12.40Q66.46 12.64 67.42 12.95L67.42 12.95Q68.47 13.29 69.13 13.60Q69.79 13.92 70.27 14.50Q70.76 15.08 70.76 15.99L70.76 15.99Q70.76 17.02 70.05 17.75Q69.34 18.47 68.24 18.82Q67.13 19.18 65.95 19.18L65.95 19.18ZM80.22 10.12Q81.16 10.12 81.68 10.86Q82.21 11.59 82.21 12.89L82.21 12.89Q82.21 14.67 81.47 16.11Q80.72 17.54 79.42 18.36Q78.12 19.18 76.51 19.18L76.51 19.18Q75.18 19.18 74.18 18.63Q73.18 18.09 72.63 17.11Q72.09 16.13 72.09 14.87L72.09 14.87Q72.09 13.06 72.83 11.65Q73.58 10.23 74.82 9.46Q76.06 8.68 77.49 8.68L77.49 8.68Q78.43 8.68 78.83 9.00Q79.24 9.32 79.24 10.02L79.24 10.02Q79.24 10.18 79.21 10.43L79.21 10.43Q79.65 10.12 80.22 10.12L80.22 10.12ZM77.18 17.70Q77.87 17.70 78.52 17.31Q79.17 16.93 79.63 16.24Q80.09 15.55 80.23 14.69L80.23 14.69Q78.41 13.85 78.41 12.01L78.41 12.01Q78.41 11.35 78.79 10.84L78.79 10.84Q78.40 10.78 78.23 10.78L78.23 10.78Q77.31 10.78 76.61 11.33Q75.91 11.89 75.52 12.82Q75.14 13.76 75.14 14.87L75.14 14.87Q75.14 16.24 75.68 16.97Q76.23 17.70 77.18 17.70L77.18 17.70ZM90.78 14.78Q91.29 16.16 91.85 17.09Q92.41 18.03 92.95 18.41L92.95 18.41Q92.64 18.72 92.04 18.95Q91.43 19.18 90.94 19.18L90.94 19.18Q89.96 19.18 89.40 18.67Q88.83 18.16 88.38 16.88L88.38 16.88L87.91 15.54L87.85 15.54Q87.08 15.54 86.51 15.34L86.51 15.34Q86.35 16.30 86.35 16.81L86.35 16.81Q86.35 17.46 86.44 17.85Q86.53 18.24 86.77 18.56L86.77 18.56Q85.97 19.19 85.04 19.19L85.04 19.19Q84.14 19.19 83.73 18.75Q83.33 18.30 83.33 17.30L83.33 17.30Q83.33 16.69 83.50 15.46Q83.68 14.22 84.21 11.19L84.21 11.19L83.47 9.69Q85.05 8.67 86.35 8.67L86.35 8.67Q87.01 8.67 87.26 9.16L87.26 9.16Q88.19 8.69 89.40 8.69L89.40 8.69Q90.37 8.69 91.08 9.11Q91.78 9.52 92.16 10.19Q92.53 10.86 92.53 11.62L92.53 11.62Q92.53 12.56 92.08 13.40Q91.64 14.24 90.78 14.78L90.78 14.78ZM86.79 13.76Q87.01 13.79 87.11 13.79L87.11 13.79Q88.10 13.79 88.75 13.24Q89.40 12.70 89.40 11.82L89.40 11.82Q89.40 11.30 89.03 10.89Q88.66 10.49 87.99 10.49L87.99 10.49Q87.71 10.49 87.37 10.60L87.37 10.60Q87.30 11.07 86.91 13.10L86.91 13.10L86.79 13.76Z"></path></g><!----><!----></svg>